<svg id="visual" viewBox="0 0 960 540" width="960" height="540" xmlns="http://www.w3.org/2000/svg" xmlns:xlink="http://www.w3.org/1999/xlink" version="1.1"><rect x="0" y="0" width="960" height="540" fill="#FFFFFF"></rect><path d="M0 418L26.7 408.2C53.3 398.3 106.7 378.7 160 386.5C213.3 394.3 266.7 429.7 320 434.8C373.3 440 426.7 415 480 415.2C533.3 415.3 586.7 440.7 640 438.3C693.3 436 746.7 406 800 385.7C853.3 365.3 906.7 354.7 933.3 349.3L960 344L960 541L933.3 541C906.7 541 853.3 541 800 541C746.7 541 693.3 541 640 541C586.7 541 533.3 541 480 541C426.7 541 373.3 541 320 541C266.7 541 213.3 541 160 541C106.7 541 53.3 541 26.7 541L0 541Z" fill="#f59e0b" stroke-linecap="round" stroke-linejoin="miter"></path></svg>